<svg id="SvgjsSvg1011" width="288" height="288" xmlns="http://www.w3.org/2000/svg" version="1.1" xmlns:xlink="http://www.w3.org/1999/xlink" xmlns:svgjs="http://svgjs.com/svgjs"><defs id="SvgjsDefs1012"></defs><g id="SvgjsG1013" transform="matrix(0.9167,0,0,0.9167,11.995694857978464,11.995218033132716)"><svg xmlns="http://www.w3.org/2000/svg" data-name="Layer 1" viewBox="0 0 512 512" width="288" height="288"><path d="M502,198.51C476.3,143.25,410.69,135.06,376,138.92a132.48,132.48,0,0,0-50.93,16.9q1.81-24.07,1.83-48.2A118.79,118.79,0,0,0,259.21.72a7.52,7.52,0,0,0-6.42,0,118.79,118.79,0,0,0-67.67,106.9q0,24.09,1.83,48.2A132.38,132.38,0,0,0,136,138.92C101.31,135.06,35.7,143.26,10,198.51a108.92,108.92,0,0,0-6.82,71.43,113.86,113.86,0,0,0,39.24,61.68,7.5,7.5,0,0,0,12-7.3c-.62-3.15-5.48-31.34,14.5-52.2,12.65-13.2,32.22-19.9,48.7-16.67,24,4.72,44.86,31.54,51.37,65.74a39.88,39.88,0,0,0-.77,42.42c-.15.59-.31,1.18-.47,1.76a95.94,95.94,0,0,1-9.56,22.55c-6.84,11.43-14.69,17.49-23.33,18-12.14.75-25.59-9.22-34.29-25.41a7.5,7.5,0,0,0-13.6.86c-12.75,33.09-7.35,67.92,13.73,88.73,13.22,13.05,30.13,18.34,47.43,18.34,23.38,0,47.44-9.69,63.91-23a61.64,61.64,0,0,0,7.25,9.79l31.15,34.31a7.49,7.49,0,0,0,11.1,0l31.15-34.31a61.64,61.64,0,0,0,7.25-9.79,106.34,106.34,0,0,0,49.51,21.83,91,91,0,0,0,14.24,1.14c18.86,0,35.43-6.29,47.59-18.29,21.09-20.81,26.48-55.64,13.73-88.73a7.5,7.5,0,0,0-13.6-.86c-8.7,16.18-22.16,26.16-34.29,25.41-8.64-.53-16.49-6.59-23.33-18a96.25,96.25,0,0,1-9.56-22.56c-.16-.58-.32-1.17-.47-1.76a39.88,39.88,0,0,0-.77-42.42c6.51-34.19,27.36-61,51.37-65.74,16.48-3.23,36.05,3.47,48.7,16.67,20,20.86,15.12,49.05,14.5,52.2a7.5,7.5,0,0,0,12.05,7.3,113.86,113.86,0,0,0,39.24-61.68A108.92,108.92,0,0,0,502,198.51ZM256,15.87a103.75,103.75,0,0,1,55.88,91.75,628.44,628.44,0,0,1-10.82,116L286.1,303H225.9l-15-79.41c-3.22-17.11-5.72-34.41-7.51-51.78a7.52,7.52,0,0,0-.38-3.82c-1.94-20.08-2.93-40.25-2.93-60.37A103.75,103.75,0,0,1,256,15.87ZM309.5,318a25,25,0,0,1,0,50h-107a25,25,0,0,1,0-50h107ZM163.22,270c-11.76-16-26.53-26.13-42.71-29.31-21.62-4.24-46.12,4-62.41,21C44,276.49,39.66,294,38.73,307.3a98.79,98.79,0,0,1-21-40.89,94,94,0,0,1,5.85-61.57c22.15-47.54,80.07-54.43,110.8-51,23.4,2.61,42,12.3,54.27,20.74q2.73,26.07,7.57,51.8L210.63,303H202.5a39.74,39.74,0,0,0-21,5.95A118.76,118.76,0,0,0,163.22,270Zm44.62,139.52a62.47,62.47,0,0,0-2.08,41.52c-22.62,20.66-68.74,33.8-94.51,8.37C97.65,446,92.43,424,96.75,401.5c11.06,13.06,25.16,20.27,39,19.41,13.68-.84,25.88-9.58,35.28-25.28a107.08,107.08,0,0,0,9-19.53A39.77,39.77,0,0,0,202.5,383h16.3Zm73.75,55.59L256,493.34l-25.59-28.19a47.55,47.55,0,0,1-8.71-49.87L235,383H277l13.33,32.28A47.55,47.55,0,0,1,281.59,465.15Zm94.62-44.24c13.91.86,28-6.35,39-19.41,4.33,22.46-.9,44.52-14.5,57.95-25.77,25.43-71.89,12.29-94.51-8.37a62.47,62.47,0,0,0-2.08-41.52L293.2,383h16.3a39.77,39.77,0,0,0,22.43-6.9,107.08,107.08,0,0,0,9,19.53C350.33,411.33,362.53,420.07,376.21,420.91Zm118.08-154.5a98.79,98.79,0,0,1-21,40.89c-.93-13.27-5.24-30.81-19.37-45.55-16.29-17-40.79-25.26-62.41-21C375.33,243.9,360.59,254,348.84,270a118.55,118.55,0,0,0-18.38,39,39.74,39.74,0,0,0-21-5.95h-8.13l14.43-76.63c3.22-17.13,5.75-34.43,7.57-51.8,12.21-8.41,30.84-18.13,54.27-20.74,30.73-3.42,88.65,3.47,110.8,51A94,94,0,0,1,494.29,266.41Z" fill="#f0a52f" class="color000 svgShape"></path></svg></g></svg>