<svg xmlns="http://www.w3.org/2000/svg" data-name="Layer 1" viewBox="0 0 512 512" height="40" width="40"><path fill="#fed402" d="M418,384.08c-9.88,18.4-25.82,30.3-41.35,29.35-26.81-1.65-38.12-40.76-39.63-46-13.32-46,12.66-110.88,55.89-119.36,18.65-3.66,40.74,3.38,55.56,18.84,22.78,23.79,17.06,55.68,16.44,58.84,37.68-30.26,49.94-82,30.31-124.1-23.58-50.61-84-59.12-118.43-55.29-45,5-73.19,34.15-77.79,39-44.53,47.34-35.64,114-23.73,203.33,5,37.66,11.16,53.11,23.33,65.42,25,25.24,77.88,39.75,107.4,10.61C425.1,446,429.46,413.78,418,384.08Z"/><path fill="#fac600" d="M362.93 248.09c-43.23 8.48-69.21 73.32-55.89 119.36 1.51 5.22 12.82 44.33 39.63 46a33 33 0 0 0 17.25-4c-17.73-10.41-25.64-37.69-26.88-42-12.85-44.4 10.86-106.28 51.35-118.24A57 57 0 0 0 362.93 248.09zM495.24 201.67c-23.51-50.46-83.68-59.07-118.13-55.32 32.49 3.26 70.56 17.6 88.13 55.32 13.42 28.8 11.93 62.06-2.38 89.9a75 75 0 0 1 2.07 34.2C502.61 295.51 514.87 243.81 495.24 201.67zM394 409.43c1.88 21.42-4.23 41.83-17.93 55.35a55 55 0 0 1-27.84 14.66c20.79 3.84 42.48.5 57.84-14.66 19.08-18.82 23.44-51 12-80.7C411.84 395.59 403.29 404.56 394 409.43z"/><path fill="#fed402" d="M244.27,326.12c-1.34,14.47-3.22,29.7-5.32,45.69q-1.08,8.34-2.24,16.94c-5,37.66-11.16,53.11-23.33,65.42a86,86,0,0,1-19.75,14.61c-27.15,14.88-64.55,18.8-87.65-4-19.08-18.82-23.44-51-12-80.7,9.88,18.4,25.82,30.3,41.35,29.35,26.81-1.65,38.12-40.76,39.63-46,13.32-46-12.66-110.88-55.89-119.36-18.65-3.66-40.74,3.38-55.56,18.84-22.78,23.79-17.06,55.68-16.44,58.84-37.68-30.26-49.94-82-30.31-124.1,23.58-50.61,84-59.12,118.43-55.29a120.87,120.87,0,0,1,29.08,7,133.26,133.26,0,0,1,48.71,32C246.41,221,249.73,267.38,244.27,326.12Z"/><path fill="#fac600" d="M244.27,326.12H192.62L173.57,225a635.21,635.21,0,0,1-9.3-71.61,133.26,133.26,0,0,1,48.71,32C246.41,221,249.73,267.38,244.27,326.12Z"/><path fill="#af66da" d="M289.38,326.12H222.62L203.57,225a634.67,634.67,0,0,1-10.95-117.36h0A110.77,110.77,0,0,1,256,7.5h0a110.77,110.77,0,0,1,63.38,100.12h0A634.67,634.67,0,0,1,308.43,225Z"/><path fill="#9857bd" d="M270.48,15.75h0a110.67,110.67,0,0,1,18.9,61.87h0A634.67,634.67,0,0,1,278.43,195l-11.2,59.47A51.13,51.13,0,0,1,217,296.12h0l5.65,30h66.76L308.43,225a634.67,634.67,0,0,0,10.95-117.36h0A110.75,110.75,0,0,0,270.48,15.75Z"/><path fill="#fac600" d="M239,371.81q-1.08,8.34-2.24,16.94c-5,37.66-11.16,53.11-23.33,65.42a86,86,0,0,1-19.75,14.61,54.82,54.82,0,0,1-8.86-56.36l16.76-40.61Z"/><path fill="#af66da" d="M287.14,470.19,256,504.5l-31.14-34.31a54.82,54.82,0,0,1-10.09-57.77l16.76-40.61h48.94l16.76,40.61A54.82,54.82,0,0,1,287.14,470.19Z"/><path fill="#9857bd" d="M297.23,412.42l-16.76-40.61H231.53l-6.19,15h0A37.54,37.54,0,0,1,260.05,410l7.18,17.38a54.82,54.82,0,0,1-10.09,57.77l-9.33,10.29,8.19,9,31.14-34.31A54.82,54.82,0,0,0,297.23,412.42Z"/><rect width="172" height="65" x="170" y="310.5" fill="#97d729" rx="32.5"/><path fill="#8bc727" d="M309.5,310.5h-2.62A32.29,32.29,0,0,1,312,328h0a32.5,32.5,0,0,1-32.5,32.5H175.12a32.47,32.47,0,0,0,27.38,15h107A32.5,32.5,0,0,0,342,343h0A32.5,32.5,0,0,0,309.5,310.5Z"/></svg>